<?xml version="1.0" encoding="UTF-8" ?>
<!DOCTYPE svg PUBLIC "-//W3C//DTD SVG 1.1//EN" "http://www.w3.org/Graphics/SVG/1.1/DTD/svg11.dtd">
<svg width="1170pt" height="827pt" viewBox="0 0 1170 827" version="1.1" xmlns="http://www.w3.org/2000/svg">
<g id="#ffffffff">
</g>
<g id="#000000ff">
<path fill="#000000" opacity="1.00" d=" M 120.24 167.04 C 120.92 162.54 126.04 161.24 129.87 160.82 C 134.36 161.28 138.73 162.63 142.87 164.42 C 150.74 167.88 158.38 171.81 166.12 175.54 C 164.19 171.57 159.80 169.68 157.73 165.94 C 165.76 169.94 172.97 175.68 178.63 182.64 C 178.05 176.62 178.21 169.47 183.01 165.09 C 186.91 161.63 192.56 162.55 197.10 164.02 C 210.61 168.50 223.05 176.88 231.40 188.52 C 235.37 194.10 239.07 199.98 241.56 206.39 C 243.11 210.31 239.78 213.72 237.18 216.20 C 235.01 218.10 232.01 220.86 228.99 218.99 C 224.22 216.12 219.49 212.51 216.66 207.63 C 220.02 208.21 222.93 210.43 226.45 210.26 C 226.77 206.99 225.65 203.80 223.87 201.10 C 219.26 193.88 212.69 188.14 205.75 183.24 C 201.75 180.53 197.56 177.89 192.87 176.60 C 190.92 176.01 188.21 176.13 187.23 178.24 C 185.68 181.66 187.14 185.41 188.17 188.77 C 196.19 211.03 207.74 231.80 220.20 251.85 C 221.81 254.83 224.06 257.58 224.88 260.92 C 222.71 263.13 220.02 265.89 216.91 266.20 C 214.08 262.86 212.25 258.81 209.84 255.17 C 208.57 253.72 209.41 251.82 209.73 250.19 C 199.81 234.62 190.47 218.55 183.87 201.26 C 174.27 196.53 165.34 190.49 155.41 186.44 C 150.02 184.20 144.70 181.65 139.01 180.27 C 136.86 179.49 134.45 181.81 135.25 184.00 C 136.31 188.72 138.72 192.99 140.80 197.32 C 148.48 211.96 157.05 226.11 165.76 240.16 C 168.43 244.34 171.42 248.38 173.31 253.00 C 171.26 255.97 168.86 259.43 165.08 260.17 C 162.95 259.40 161.69 257.39 160.32 255.72 C 143.78 234.24 127.89 211.80 106.96 194.27 C 104.28 192.53 100.79 188.92 97.50 190.93 C 97.53 194.76 100.24 197.85 102.09 201.01 C 112.19 215.62 122.30 230.46 129.01 247.00 C 130.96 252.09 132.73 257.43 132.63 262.95 C 132.60 266.87 130.01 270.97 125.97 271.69 C 121.13 272.55 116.71 269.75 112.85 267.22 C 103.79 260.78 95.84 252.95 88.06 245.05 C 88.11 243.08 88.16 241.11 88.20 239.15 C 92.92 243.58 97.67 248.04 103.03 251.69 C 106.07 253.67 109.84 255.75 113.53 254.33 C 115.67 253.54 116.28 251.00 116.06 248.97 C 115.63 243.67 113.33 238.76 110.80 234.17 C 103.62 221.62 94.78 210.15 86.45 198.37 C 82.60 192.63 78.28 186.30 78.75 179.08 C 79.85 175.23 81.16 170.37 84.93 168.42 C 91.43 169.70 96.46 174.59 101.54 178.55 C 122.45 196.69 140.07 218.20 157.53 239.57 C 146.92 220.97 135.28 202.95 125.45 183.92 C 123.05 178.58 119.79 173.09 120.24 167.04 Z" />
<path fill="#000000" opacity="1.00" d=" M 327.56 164.56 C 329.51 162.40 332.62 163.56 335.04 164.07 C 344.68 166.89 353.91 171.05 362.61 176.03 C 360.90 171.98 361.37 167.43 363.91 163.86 C 389.63 177.15 411.34 196.68 431.89 216.78 C 436.41 216.88 440.94 217.00 445.47 216.86 C 443.70 212.69 438.73 212.97 434.99 212.37 C 440.78 212.25 447.46 211.70 452.12 215.87 C 455.48 218.88 458.85 222.11 460.98 226.14 C 461.81 227.58 462.03 230.35 460.02 230.89 C 455.77 231.85 451.36 231.50 447.04 231.96 C 451.78 237.09 456.51 242.23 461.37 247.25 C 465.15 245.44 468.61 248.42 471.35 250.70 C 476.25 255.11 480.60 260.35 483.33 266.40 C 484.06 267.97 484.41 270.64 482.21 271.16 C 477.85 271.52 474.59 268.03 471.55 265.44 C 460.41 254.51 449.01 243.84 438.43 232.37 C 427.97 232.59 417.51 232.79 407.06 232.33 C 410.62 239.37 414.74 246.15 417.60 253.52 C 419.33 257.34 418.78 262.57 415.06 265.02 C 411.79 267.68 407.31 266.13 404.18 264.07 C 398.13 260.09 392.60 255.39 386.78 251.09 C 386.63 250.09 386.34 248.08 386.20 247.08 C 390.24 249.31 394.17 251.79 398.48 253.50 C 400.60 254.55 403.42 252.41 402.46 250.04 C 400.26 243.69 396.75 237.89 393.75 231.90 C 390.10 231.59 386.46 231.23 382.81 231.08 C 379.96 227.63 377.26 224.07 374.41 220.62 C 373.11 218.92 371.28 217.24 371.65 214.88 C 375.86 214.75 380.07 214.63 384.29 214.53 C 381.96 210.51 379.93 206.32 377.49 202.37 C 366.16 197.21 355.87 190.10 344.95 184.15 C 341.79 182.44 338.62 180.56 335.05 179.86 C 333.22 179.38 331.29 181.05 331.62 182.95 C 331.93 188.59 334.80 193.66 337.28 198.60 C 345.98 214.43 356.65 229.07 367.42 243.52 C 368.87 245.40 370.51 247.57 369.69 250.11 C 368.80 254.43 367.52 259.07 364.34 262.28 C 361.33 264.27 358.76 260.84 357.38 258.56 C 344.94 238.71 331.71 219.25 316.32 201.55 C 311.60 196.31 306.80 191.00 300.95 187.02 C 299.77 186.34 297.22 184.86 296.78 187.03 C 296.25 192.78 300.19 197.58 302.69 202.42 C 310.93 217.30 321.84 230.43 331.26 244.53 C 335.30 250.10 334.28 257.72 331.33 263.53 C 330.66 265.03 328.63 266.42 327.18 264.99 C 323.26 261.79 320.59 257.40 317.39 253.54 C 303.07 235.38 287.96 217.68 270.58 202.35 C 267.83 200.29 265.35 197.35 261.93 196.57 C 260.25 197.61 262.12 199.27 262.75 200.29 C 271.37 210.74 280.77 220.73 287.39 232.65 C 291.49 240.01 294.37 248.45 293.38 256.97 C 292.79 262.10 289.33 267.22 284.15 268.53 C 280.51 269.59 276.74 268.40 273.49 266.73 C 262.76 260.98 253.60 252.82 244.72 244.60 C 244.72 242.85 244.71 241.10 244.72 239.35 C 249.75 243.00 254.86 246.54 260.13 249.84 C 264.05 252.31 268.10 255.68 273.04 255.21 C 275.28 255.14 276.97 253.21 277.16 251.05 C 277.85 245.07 275.42 239.33 273.23 233.90 C 265.25 215.79 252.58 200.27 239.06 186.01 C 237.32 183.77 233.95 181.26 235.46 178.08 C 237.10 174.87 238.94 171.49 241.96 169.38 C 245.34 168.65 248.02 171.54 250.49 173.41 C 256.48 178.81 262.77 183.87 268.97 189.02 C 281.47 200.82 293.03 213.56 304.94 225.94 C 297.13 212.43 288.81 199.19 281.99 185.13 C 280.43 181.53 278.19 177.55 279.66 173.53 C 280.67 170.76 282.79 167.62 286.06 167.58 C 289.33 168.34 292.15 170.28 294.94 172.04 C 302.40 177.09 309.30 183.02 315.26 189.79 C 322.77 198.32 330.12 207.00 337.14 215.95 C 332.64 205.91 327.29 196.25 323.43 185.94 C 322.33 182.54 321.02 178.80 322.18 175.24 C 323.39 171.45 324.80 167.52 327.56 164.56 M 373.32 175.58 C 381.49 188.42 389.06 201.64 396.85 214.73 C 405.00 214.77 413.15 215.10 421.31 215.17 C 406.71 200.41 390.80 186.82 373.32 175.58 Z" />
<path fill="#000000" opacity="1.00" d=" M 509.92 167.07 C 510.38 163.85 514.06 162.13 517.02 162.99 C 522.22 164.46 526.31 168.27 530.29 171.75 C 540.12 181.02 548.47 191.70 556.61 202.44 C 566.10 215.12 575.00 228.24 583.68 241.49 C 590.20 241.70 597.10 241.82 603.01 244.94 C 608.32 248.10 610.82 254.06 614.15 258.98 C 615.55 260.72 616.10 264.65 612.95 264.67 C 605.33 264.09 598.86 258.42 591.02 258.75 C 574.60 258.91 558.99 264.67 543.05 267.89 C 540.20 268.43 536.72 268.85 534.48 266.58 C 530.14 262.44 526.44 257.68 522.35 253.30 C 540.39 250.53 557.40 242.80 575.74 241.63 C 564.63 225.14 552.96 209.00 540.57 193.44 C 535.65 187.85 531.13 181.57 524.80 177.49 C 521.85 177.27 523.86 180.64 524.49 181.90 C 530.42 193.59 539.36 203.95 542.55 216.90 C 542.98 219.04 543.79 224.30 540.08 223.28 C 533.07 220.37 528.18 214.20 523.42 208.55 C 524.19 207.75 524.97 206.95 525.75 206.16 C 520.71 197.00 515.69 187.78 511.99 177.98 C 510.82 174.48 509.44 170.82 509.92 167.07 Z" />
<path fill="#000000" opacity="1.00" d=" M 643.12 163.84 C 647.70 162.04 652.77 163.00 657.49 163.65 C 670.52 165.97 683.36 170.45 694.33 177.97 C 699.43 173.59 706.15 172.01 712.59 170.76 C 733.83 166.87 756.07 169.37 776.38 176.47 C 785.11 179.18 791.17 187.28 793.20 195.95 C 793.65 198.31 791.47 200.52 789.10 200.13 C 782.04 199.93 774.97 199.57 767.91 199.27 C 766.47 199.35 765.15 198.84 763.97 198.08 C 767.95 196.52 772.49 198.06 776.34 196.01 C 775.23 194.83 773.80 194.08 772.23 193.82 C 763.13 191.94 754.00 190.15 744.77 189.03 C 752.82 199.68 760.71 210.45 768.75 221.12 C 772.35 221.58 776.03 221.76 779.56 222.69 C 782.88 223.65 784.71 226.82 786.55 229.49 C 787.68 231.44 789.30 233.51 788.89 235.90 C 787.22 237.62 784.67 238.10 782.58 239.14 C 788.32 246.94 793.91 254.91 798.31 263.56 C 799.02 265.24 800.27 267.05 799.43 268.93 C 798.21 270.42 795.86 270.71 794.24 269.79 C 791.66 268.44 789.11 266.57 787.97 263.80 C 785.13 255.97 779.87 249.38 775.14 242.63 C 756.30 251.92 737.21 260.73 718.87 270.99 C 716.40 272.07 714.04 274.27 711.19 273.83 C 708.66 271.72 709.31 267.92 708.99 264.99 C 709.07 260.81 708.36 255.12 712.81 252.84 C 730.43 242.85 749.43 235.57 768.42 228.65 C 753.52 227.76 738.60 226.30 724.00 223.07 C 714.64 220.82 704.48 218.62 697.50 211.45 C 694.47 208.66 692.67 204.94 690.61 201.47 C 681.32 196.04 672.42 189.85 662.53 185.55 C 660.34 184.54 657.97 184.00 655.58 183.78 C 656.16 188.28 659.72 191.48 662.27 194.98 C 672.61 208.23 684.44 220.44 692.93 235.05 C 696.18 240.78 699.30 247.37 697.73 254.13 C 696.98 259.20 692.34 263.80 686.99 263.15 C 680.79 262.65 676.87 257.23 672.55 253.42 C 653.86 236.34 636.97 217.45 619.71 198.97 C 626.68 209.29 633.65 219.63 639.73 230.50 C 643.14 236.68 646.44 243.06 647.99 249.99 C 648.88 254.68 648.69 260.45 644.84 263.83 C 640.36 267.35 633.88 266.79 629.15 264.07 C 620.12 259.13 612.73 251.79 605.50 244.58 C 605.44 242.84 605.38 241.10 605.32 239.36 C 611.15 243.78 616.99 248.27 623.47 251.73 C 625.75 252.83 628.32 254.16 630.92 253.31 C 633.14 252.63 633.95 250.10 633.82 248.00 C 633.59 243.95 631.91 240.17 630.34 236.50 C 622.61 219.46 611.31 204.45 601.16 188.85 C 598.84 185.42 596.70 181.40 597.64 177.12 C 598.08 174.51 598.83 170.35 602.06 170.09 C 605.55 171.17 607.60 174.51 610.05 177.01 C 628.82 198.49 647.26 220.50 669.32 238.75 C 672.28 240.95 674.89 244.54 678.89 244.58 C 681.28 244.76 681.75 241.77 680.94 240.06 C 679.30 236.03 676.43 232.66 674.15 229.00 C 664.27 213.66 651.52 200.31 642.74 184.24 C 640.13 179.63 639.64 174.18 639.79 168.98 C 639.81 166.82 641.00 164.61 643.12 163.84 M 704.42 189.83 C 706.85 195.03 710.96 200.57 709.47 206.56 C 725.13 212.94 741.85 216.02 758.35 219.32 C 753.62 213.10 748.82 206.92 744.25 200.58 C 741.68 196.95 739.39 192.80 739.82 188.19 C 728.05 187.06 715.89 186.40 704.42 189.83 Z" />
<path fill="#000000" opacity="1.00" d=" M 806.35 170.16 C 807.79 165.70 812.18 162.26 816.98 162.70 C 824.90 163.37 832.18 167.12 838.96 171.03 C 852.36 178.85 862.00 191.86 868.10 205.90 C 870.06 209.80 866.72 213.52 864.06 216.04 C 861.76 218.18 858.38 221.05 855.21 218.74 C 850.68 215.84 846.13 212.38 843.36 207.68 C 846.80 208.02 849.72 210.82 853.32 209.98 C 853.21 207.12 852.57 204.26 851.01 201.83 C 846.88 194.96 840.84 189.45 834.47 184.69 C 829.87 181.39 825.04 178.14 819.54 176.59 C 817.48 175.94 814.66 176.24 813.78 178.52 C 812.38 182.30 814.11 186.26 815.26 189.87 C 822.43 209.21 832.05 227.56 842.82 245.13 C 845.69 250.42 849.76 255.24 851.54 261.01 C 849.43 263.42 846.64 265.10 843.89 266.66 C 840.98 262.94 838.77 258.74 836.30 254.73 C 835.19 253.32 836.21 251.62 836.44 250.12 C 825.27 232.72 814.86 214.59 808.35 194.88 C 805.89 186.99 803.60 178.28 806.35 170.16 Z" />
<path fill="#000000" opacity="1.00" d=" M 953.90 164.95 C 955.87 162.26 959.42 163.54 962.08 164.17 C 971.34 166.92 980.24 170.88 988.62 175.66 C 987.07 171.69 987.63 167.33 990.05 163.86 C 1015.80 177.14 1037.50 196.69 1058.07 216.79 C 1062.58 216.87 1067.10 217.01 1071.63 216.85 C 1069.90 212.86 1065.12 212.98 1061.50 212.26 C 1066.68 212.34 1072.48 211.75 1076.97 214.90 C 1080.77 217.74 1084.11 221.27 1086.69 225.26 C 1087.80 226.90 1088.55 230.13 1086.11 230.93 C 1081.87 231.85 1077.47 231.47 1073.18 231.96 C 1077.95 237.06 1082.66 242.22 1087.52 247.24 C 1090.99 245.56 1094.30 248.03 1096.87 250.16 C 1101.91 254.47 1106.23 259.73 1109.20 265.68 C 1110.05 267.42 1110.82 270.77 1108.12 271.20 C 1103.56 271.32 1100.25 267.58 1097.07 264.84 C 1086.18 254.12 1074.98 243.69 1064.66 232.41 C 1054.17 232.53 1043.68 232.81 1033.21 232.34 C 1036.86 239.55 1041.15 246.49 1043.96 254.09 C 1045.49 257.81 1044.72 262.76 1041.17 265.05 C 1037.85 267.72 1033.33 266.06 1030.19 263.97 C 1024.20 260.01 1018.70 255.36 1012.94 251.08 C 1012.79 250.08 1012.50 248.08 1012.35 247.07 C 1016.56 249.35 1020.61 252.06 1025.16 253.65 C 1027.63 254.42 1029.63 251.59 1028.44 249.40 C 1026.10 243.34 1022.84 237.70 1019.93 231.90 C 1016.24 231.58 1012.56 231.25 1008.87 231.04 C 1005.27 225.96 1000.59 221.59 997.61 216.12 L 998.00 215.24 C 1002.01 214.26 1006.31 214.85 1010.44 214.54 C 1007.95 210.41 1006.08 205.86 1003.26 201.97 C 992.13 196.72 981.96 189.73 971.16 183.87 C 967.92 182.16 964.63 180.19 960.93 179.78 C 958.75 179.86 957.97 182.16 958.37 183.99 C 959.17 189.80 962.11 195.01 964.81 200.12 C 973.55 215.65 984.08 230.08 994.73 244.34 C 998.59 248.76 995.17 254.83 993.26 259.39 C 992.27 262.57 987.97 264.33 985.91 261.03 C 979.60 252.02 974.06 242.45 967.64 233.49 C 957.92 219.70 947.83 206.05 935.97 194.01 C 932.58 190.99 929.39 187.25 924.93 185.89 C 922.81 185.71 923.41 188.63 923.52 189.92 C 924.88 195.67 928.47 200.54 931.30 205.65 C 939.20 219.43 949.48 231.62 958.18 244.88 C 960.86 248.69 961.12 253.57 960.03 257.98 C 959.32 260.72 958.63 263.95 956.05 265.56 C 953.03 265.55 951.40 262.44 949.55 260.50 C 934.34 240.88 918.46 221.64 900.11 204.84 C 896.60 201.83 893.23 198.51 889.05 196.43 C 888.76 196.81 888.17 197.55 887.87 197.92 C 894.22 206.82 902.15 214.52 908.33 223.58 C 915.55 233.72 922.20 246.07 919.71 258.92 C 918.29 266.20 909.94 271.25 902.99 267.95 C 890.95 262.60 881.16 253.43 871.49 244.70 C 871.44 242.92 871.41 241.14 871.41 239.36 C 878.08 244.20 884.96 248.77 891.97 253.10 C 894.96 254.87 899.08 256.35 902.26 254.25 C 904.58 252.03 903.99 248.40 903.70 245.53 C 901.74 236.18 897.25 227.59 892.33 219.49 C 884.95 207.30 875.61 196.47 865.87 186.13 C 863.66 183.64 859.97 180.25 862.76 176.82 C 864.84 173.86 866.95 168.02 871.50 169.56 C 877.22 172.45 881.43 177.54 886.46 181.44 C 903.09 194.18 916.31 210.63 931.18 225.26 C 922.97 210.59 913.54 196.51 906.93 181.01 C 904.45 176.27 906.59 169.14 911.98 167.64 C 915.43 167.74 918.33 170.08 921.22 171.77 C 938.65 183.11 950.88 200.31 963.96 216.09 C 959.92 207.42 955.52 198.91 951.77 190.11 C 950.08 185.97 948.27 181.65 948.46 177.10 C 949.44 172.77 951.07 168.43 953.90 164.95 M 999.57 175.69 C 1001.72 180.04 1005.85 183.10 1007.16 187.90 C 1012.32 196.91 1017.83 205.73 1023.01 214.73 C 1031.09 214.76 1039.18 215.12 1047.27 215.14 C 1041.95 209.30 1036.06 204.02 1030.12 198.83 C 1020.39 190.55 1010.48 182.37 999.57 175.69 Z" />
<path fill="#000000" opacity="1.00" d=" M 504.37 358.07 C 504.07 353.85 508.20 351.11 511.99 350.86 C 520.10 349.99 527.47 354.23 534.60 357.45 C 539.90 359.93 545.09 362.65 550.40 365.10 C 548.32 361.20 544.35 359.05 541.69 355.67 C 550.03 359.13 557.08 365.34 562.87 372.19 C 562.35 366.29 562.47 359.42 566.98 354.98 C 570.74 351.29 576.50 352.07 581.08 353.53 C 595.04 358.06 607.81 366.81 616.26 378.92 C 620.00 384.36 623.59 390.01 625.92 396.23 C 627.28 399.68 624.40 402.85 622.15 405.14 C 619.72 407.47 616.15 410.79 612.69 408.30 C 608.21 405.37 603.67 401.96 600.95 397.26 C 604.26 397.53 607.17 400.52 610.59 399.51 C 611.24 396.37 609.70 393.30 608.14 390.68 C 604.42 384.85 599.35 379.98 593.93 375.73 C 588.20 371.53 582.15 366.85 574.91 365.89 C 569.99 366.02 570.33 372.26 571.57 375.60 C 579.09 398.05 590.63 418.92 602.99 439.03 C 605.07 442.65 607.57 446.08 609.11 449.98 C 608.09 452.76 604.85 454.01 602.59 455.71 C 601.28 456.46 600.46 455.15 599.89 454.21 C 597.58 450.54 595.34 446.81 593.13 443.08 C 593.36 442.29 593.83 440.70 594.06 439.91 C 584.15 424.29 574.75 408.20 568.15 390.86 C 558.63 386.18 549.78 380.19 539.95 376.15 C 534.49 373.86 529.09 371.34 523.35 369.86 C 521.46 369.24 519.13 370.81 519.40 372.91 C 519.94 376.43 521.59 379.65 523.07 382.86 C 532.71 402.09 544.11 420.38 555.62 438.53 C 556.35 440.13 558.12 442.05 556.79 443.80 C 555.08 446.25 552.88 448.66 550.00 449.68 C 547.95 449.86 546.71 447.79 545.48 446.48 C 529.06 425.16 513.31 402.95 492.87 385.20 C 489.86 382.89 486.76 379.91 482.76 379.80 C 481.07 380.55 481.91 382.52 482.42 383.77 C 485.31 389.86 489.61 395.11 493.29 400.72 C 501.40 412.93 509.22 425.53 514.30 439.35 C 515.99 444.49 517.81 450.08 516.41 455.50 C 515.24 459.86 510.33 462.48 506.03 461.21 C 499.53 459.44 494.35 454.84 489.24 450.68 C 483.30 445.66 477.79 440.16 472.31 434.66 C 472.36 432.68 472.42 430.70 472.48 428.73 C 477.62 433.57 482.78 438.50 488.80 442.23 C 491.66 443.92 495.45 445.43 498.58 443.52 C 500.67 442.09 500.48 439.20 500.18 436.99 C 499.25 431.34 496.51 426.20 493.66 421.32 C 486.99 410.24 479.26 399.87 471.70 389.40 C 468.54 384.75 465.19 380.03 463.63 374.56 C 461.89 368.82 464.21 362.45 468.32 358.34 C 471.33 357.52 474.15 359.84 476.68 361.23 C 488.03 368.94 497.67 378.86 507.10 388.76 C 519.35 401.74 530.69 415.53 541.99 429.33 C 531.75 411.84 521.03 394.63 511.39 376.80 C 508.50 370.82 504.94 364.81 504.37 358.07 Z" />
<path fill="#000000" opacity="1.00" d=" M 632.04 353.56 C 641.09 351.54 650.50 352.23 659.60 353.61 C 671.12 355.40 682.55 357.96 693.67 361.49 C 698.55 362.98 702.05 366.98 705.08 370.88 C 708.03 374.94 711.16 379.07 712.80 383.87 C 713.50 385.43 713.08 387.76 711.18 388.16 C 707.02 388.30 703.00 386.95 699.02 385.93 C 693.95 384.42 688.77 383.11 684.03 380.74 C 683.70 378.39 686.80 378.41 688.15 377.31 C 683.46 374.61 678.12 373.42 672.95 372.01 C 661.50 369.37 649.64 367.16 637.87 368.84 C 634.59 369.40 631.02 370.23 628.70 372.81 C 626.33 375.47 626.34 379.78 628.57 382.53 C 631.64 386.40 636.42 388.35 640.95 389.97 C 649.86 392.91 659.18 394.28 668.44 395.62 C 662.96 389.15 656.89 383.16 651.87 376.32 C 663.08 376.09 671.61 384.44 678.53 392.24 C 680.12 393.95 681.46 395.94 683.27 397.46 C 689.68 398.70 696.34 398.66 702.66 400.41 C 705.82 401.27 705.97 405.74 703.65 407.60 C 700.94 409.87 697.17 409.80 693.86 410.29 C 699.18 417.02 704.53 423.90 708.11 431.75 C 710.59 437.10 710.87 444.14 706.62 448.69 C 701.38 454.24 693.28 455.53 685.99 455.59 C 675.32 455.49 664.91 452.16 655.35 447.62 C 648.98 444.43 642.70 440.44 638.48 434.58 C 635.57 430.58 634.92 424.84 637.73 420.61 C 640.75 416.03 645.98 413.60 651.02 411.88 C 659.61 409.00 668.58 407.35 677.60 406.52 C 675.83 404.76 674.66 401.75 671.81 401.70 C 658.39 400.05 644.87 397.32 632.66 391.28 C 627.44 388.50 622.35 385.00 618.95 380.05 C 615.66 375.27 614.68 368.68 617.47 363.45 C 620.40 358.05 626.22 354.87 632.04 353.56 M 652.41 418.44 C 648.37 420.06 647.45 425.52 650.58 428.49 C 656.42 434.60 664.91 437.40 673.01 439.01 C 679.30 439.95 686.83 440.48 691.86 435.83 C 694.52 433.58 695.27 429.54 693.48 426.52 C 690.31 421.09 685.65 416.74 681.86 411.76 C 671.94 413.24 661.58 414.07 652.41 418.44 Z" />
<path fill="#000000" opacity="1.00" d=" M 165.54 543.65 C 171.33 541.21 177.83 542.22 183.90 542.73 C 199.37 544.85 214.39 549.66 228.61 556.04 C 226.59 551.85 226.69 546.87 229.49 543.07 C 255.12 556.35 276.86 575.73 297.27 595.89 C 301.84 596.22 306.42 596.19 311.00 596.10 C 309.37 591.99 304.38 592.15 300.76 591.34 C 305.03 591.45 309.44 591.25 313.55 592.61 C 317.35 594.08 320.14 597.20 322.83 600.13 C 324.58 602.17 326.47 604.31 327.13 606.99 C 327.44 608.27 326.77 610.05 325.29 610.21 C 321.12 611.01 316.82 610.67 312.62 611.24 C 317.39 616.29 322.10 621.40 326.90 626.42 C 330.75 624.70 334.25 627.62 337.01 629.99 C 341.96 634.50 346.45 639.81 349.06 646.04 C 349.67 647.49 349.85 649.64 348.02 650.31 C 343.63 650.92 340.29 647.33 337.23 644.74 C 326.00 633.80 314.60 623.01 303.92 611.53 C 293.49 611.85 283.05 612.02 272.62 611.53 C 276.29 618.78 280.60 625.75 283.41 633.40 C 285.00 637.17 284.03 642.13 280.42 644.38 C 277.20 646.82 272.87 645.31 269.84 643.32 C 263.77 639.39 258.29 634.63 252.43 630.40 C 252.20 629.02 251.97 627.64 251.75 626.28 C 255.59 628.40 259.35 630.72 263.39 632.45 C 264.96 633.33 267.62 633.01 268.05 630.95 C 268.63 629.55 267.59 628.21 267.21 626.91 C 264.90 621.56 262.03 616.48 259.49 611.24 C 255.73 610.71 251.94 610.50 248.17 610.17 C 245.14 606.09 241.87 602.22 238.72 598.24 C 237.78 597.15 237.30 595.78 236.90 594.44 C 241.18 593.59 245.55 593.89 249.88 593.78 C 248.63 591.51 247.38 589.24 246.10 586.99 C 241.02 585.57 236.57 582.63 231.88 580.31 C 228.19 578.22 224.20 576.62 220.78 574.08 C 222.50 573.18 227.26 574.26 226.66 571.46 C 223.88 569.65 220.75 568.48 217.72 567.20 C 207.06 562.88 196.37 558.45 185.16 555.77 C 181.69 555.02 177.87 554.16 174.51 555.77 C 172.58 556.63 171.22 558.99 172.11 561.06 C 173.83 565.52 177.02 569.19 179.81 573.01 C 187.49 582.65 195.63 591.94 204.15 600.84 C 209.75 602.82 215.72 603.77 221.45 605.41 C 224.07 606.49 226.94 604.22 229.43 605.79 C 233.14 608.12 235.56 612.48 235.68 616.85 C 235.74 618.71 234.03 619.94 232.53 620.67 C 229.17 622.21 225.36 621.65 221.80 621.60 C 225.13 626.46 228.71 631.16 231.81 636.18 C 233.95 639.26 233.13 644.65 229.00 645.50 C 226.56 646.20 225.22 643.62 223.99 642.03 C 218.98 634.37 213.88 626.77 208.38 619.45 C 199.27 617.87 190.09 616.66 180.88 615.84 C 185.07 623.70 189.86 631.94 189.81 641.11 C 190.00 643.16 188.15 645.30 185.99 644.41 C 182.10 643.38 178.13 641.59 175.47 638.49 C 174.23 635.75 177.14 632.92 176.29 630.04 C 175.09 624.77 172.15 620.13 169.92 615.26 C 164.93 615.24 159.94 615.44 154.98 615.97 C 150.43 609.83 145.92 603.67 141.37 597.54 C 146.87 596.36 152.46 595.61 158.08 595.34 C 150.72 583.66 142.28 572.70 134.93 561.01 C 132.98 557.90 132.49 553.87 133.51 550.38 C 135.21 549.11 136.34 551.45 137.43 552.45 C 148.31 566.40 158.34 580.98 168.44 595.50 C 175.72 596.35 183.04 596.99 190.28 598.16 C 183.45 590.15 176.19 582.49 169.77 574.14 C 165.38 567.98 160.62 561.02 161.42 553.05 C 161.71 549.69 162.03 545.28 165.54 543.65 M 238.93 554.78 C 246.83 567.74 254.74 580.70 262.35 593.83 C 270.53 594.26 278.74 594.12 286.93 594.37 C 272.29 579.65 256.39 566.05 238.93 554.78 Z" />
<path fill="#000000" opacity="1.00" d=" M 336.73 543.75 C 339.22 541.10 343.30 541.93 346.12 543.57 C 352.77 547.38 358.16 552.98 363.36 558.53 C 380.59 577.74 395.07 599.19 409.26 620.67 C 416.07 620.97 423.41 620.98 429.42 624.65 C 434.33 628.18 436.90 633.91 440.11 638.86 C 441.58 640.73 440.99 644.38 438.01 643.90 C 430.74 642.95 424.52 637.86 417.01 637.95 C 400.22 638.01 384.28 644.03 367.96 647.22 C 365.34 647.66 362.21 647.88 360.16 645.86 C 355.76 641.73 352.09 636.90 347.94 632.53 C 365.98 629.70 383.00 622.05 401.34 620.82 C 390.05 604.15 378.29 587.77 365.68 572.06 C 360.80 566.54 356.34 560.33 349.97 556.42 C 349.62 556.80 348.93 557.56 348.58 557.94 C 353.91 569.72 362.53 579.78 366.98 591.99 C 368.04 595.22 369.15 598.76 368.04 602.13 C 366.62 603.25 364.88 602.17 363.54 601.53 C 357.66 598.12 353.14 592.87 348.98 587.60 C 349.55 587.13 350.70 586.18 351.27 585.71 C 346.00 574.88 339.54 564.48 336.20 552.82 C 335.49 549.89 334.57 546.29 336.73 543.75 Z" />
<path fill="#000000" opacity="1.00" d=" M 428.34 545.53 C 429.25 542.39 433.13 541.37 435.95 542.40 C 440.23 543.82 443.72 546.82 447.11 549.69 C 456.28 557.97 464.06 567.64 471.60 577.39 C 482.34 591.37 492.23 605.98 501.92 620.69 C 509.98 621.05 519.69 620.91 525.38 627.65 C 528.32 631.53 531.04 635.66 533.26 640.00 C 534.45 642.21 532.38 644.55 530.03 643.86 C 522.86 642.53 516.57 637.69 509.06 637.94 C 492.61 638.18 476.98 643.94 461.01 647.15 C 458.12 647.71 454.62 647.94 452.45 645.56 C 448.24 641.44 444.58 636.82 440.59 632.51 C 458.62 629.73 475.62 622.01 493.96 620.85 C 484.87 607.11 475.05 593.87 465.17 580.70 C 459.21 573.05 453.18 565.38 446.04 558.79 C 444.78 557.91 443.44 556.15 441.73 556.89 C 441.00 558.44 442.24 559.91 442.80 561.30 C 447.91 571.06 454.70 579.91 458.91 590.14 C 460.12 593.28 461.25 596.59 461.11 600.01 C 461.28 601.70 459.84 603.46 458.08 602.39 C 451.18 599.42 446.32 593.34 441.62 587.72 C 442.40 586.95 443.18 586.19 443.97 585.44 C 438.75 575.73 433.32 566.04 429.67 555.61 C 428.68 552.39 427.44 548.91 428.34 545.53 Z" />
<path fill="#000000" opacity="1.00" d=" M 558.21 546.85 C 559.22 542.10 565.11 541.88 569.00 542.08 C 582.70 543.19 596.09 547.58 608.08 554.25 C 612.35 545.33 622.86 542.28 632.03 541.99 C 646.91 541.48 661.60 544.89 675.96 548.46 C 681.20 550.08 687.09 550.83 691.23 554.76 C 695.47 558.68 698.78 563.50 701.76 568.42 C 703.03 570.78 704.67 573.26 704.34 576.08 C 703.24 578.88 699.77 577.57 697.56 577.32 C 689.73 575.45 681.79 573.53 674.57 569.91 C 675.94 568.64 677.61 567.81 679.28 567.02 C 675.95 564.56 671.78 563.81 667.92 562.58 C 657.51 559.87 646.81 557.69 636.00 557.87 C 630.08 558.13 623.38 558.52 619.07 563.17 C 621.87 567.72 624.67 572.31 626.66 577.30 C 637.06 582.07 648.55 583.54 659.77 585.22 C 654.26 578.76 648.19 572.75 643.17 565.90 C 656.95 565.89 666.20 577.58 674.35 587.11 C 680.86 588.12 687.53 588.35 693.93 590.00 C 697.05 590.81 697.32 595.19 695.07 597.10 C 692.37 599.47 688.55 599.44 685.18 599.86 C 690.51 606.70 695.97 613.63 699.54 621.59 C 701.93 626.86 702.13 633.69 698.03 638.18 C 692.72 643.92 684.40 645.16 676.95 645.21 C 666.50 645.00 656.31 641.77 646.91 637.34 C 640.44 634.13 634.05 630.11 629.77 624.15 C 626.84 620.12 626.26 614.28 629.13 610.07 C 632.09 605.73 637.03 603.32 641.86 601.64 C 650.60 598.68 659.73 596.95 668.91 596.13 C 667.63 594.62 666.35 593.11 665.10 591.60 C 652.68 590.08 640.23 587.83 628.62 583.03 C 628.06 585.68 625.46 587.07 622.91 586.13 C 606.24 582.07 593.70 569.10 577.62 563.61 C 576.40 563.31 575.18 563.12 573.94 563.03 C 574.19 567.18 577.53 570.14 579.81 573.34 C 590.14 586.63 601.97 598.85 610.64 613.37 C 614.07 619.26 617.46 625.99 616.02 633.03 C 615.33 637.92 611.25 642.56 606.04 642.41 C 599.60 642.38 595.44 636.83 591.08 632.92 C 572.24 615.70 555.18 596.68 537.82 578.02 C 545.17 588.87 552.51 599.78 558.82 611.28 C 562.28 617.81 565.82 624.60 566.61 632.05 C 567.00 636.60 565.74 642.09 561.25 644.21 C 555.92 646.88 549.75 645.05 545.04 641.97 C 537.08 636.95 530.22 630.39 523.67 623.68 C 523.64 621.97 523.59 620.27 523.55 618.58 C 530.11 623.43 536.54 628.68 544.05 632.01 C 546.45 633.17 550.15 633.25 551.45 630.47 C 553.02 626.41 551.05 622.11 549.67 618.29 C 542.54 601.44 531.66 586.59 521.58 571.43 C 518.88 567.05 514.90 562.56 515.80 557.03 C 516.14 554.27 516.69 550.78 519.42 549.37 C 522.07 549.09 523.93 551.61 525.64 553.29 C 539.03 568.27 551.82 583.82 566.02 598.07 C 574.23 606.52 583.09 614.31 592.18 621.81 C 593.97 623.29 597.00 624.80 599.06 622.98 C 600.30 620.44 598.58 617.77 597.30 615.62 C 593.05 609.21 588.86 602.76 584.27 596.59 C 576.29 586.15 568.02 575.86 561.48 564.43 C 558.36 559.19 557.54 552.82 558.21 546.85 M 647.49 606.38 C 644.64 607.47 641.11 608.77 640.17 612.01 C 639.21 615.75 642.20 618.89 644.98 620.91 C 652.01 625.86 660.54 628.45 669.05 629.19 C 674.43 629.54 680.76 628.79 684.28 624.21 C 686.48 621.56 686.05 617.61 684.11 614.94 C 680.84 610.09 676.74 605.88 673.09 601.34 C 664.48 602.54 655.77 603.64 647.49 606.38 Z" />
<path fill="#000000" opacity="1.00" d=" M 926.74 547.00 C 927.98 543.22 932.47 542.51 935.90 542.22 C 949.21 541.64 962.29 545.09 974.89 549.04 C 985.63 552.72 996.31 556.95 1005.97 563.00 C 1011.38 565.97 1013.15 572.39 1014.13 578.04 C 1014.41 580.84 1014.80 584.68 1011.97 586.36 C 1009.05 587.57 1006.24 585.45 1003.68 584.31 C 997.41 580.93 991.01 577.81 984.86 574.23 C 986.84 573.74 988.88 573.46 990.85 572.87 C 990.83 572.49 990.77 571.74 990.74 571.36 C 981.62 566.54 971.80 563.16 962.15 559.56 C 955.57 557.47 948.90 554.86 941.90 554.90 C 938.56 554.88 934.77 557.93 936.46 561.51 C 939.30 567.61 943.85 572.71 947.99 577.96 C 954.60 585.79 961.30 593.59 968.45 600.93 C 974.13 602.77 980.05 603.87 985.83 605.45 C 988.46 606.43 991.39 604.11 993.85 605.92 C 997.66 608.49 1000.30 613.31 999.71 617.96 C 996.94 622.64 990.61 621.70 986.02 621.60 C 989.32 626.48 992.91 631.18 996.04 636.19 C 998.23 639.32 997.26 644.90 992.99 645.54 C 990.82 646.07 989.61 643.91 988.52 642.49 C 983.33 634.70 978.22 626.85 972.52 619.42 C 963.42 617.89 954.27 616.65 945.09 615.84 C 949.16 623.40 953.56 631.28 954.08 640.04 C 954.26 641.88 953.51 644.84 951.11 644.53 C 947.18 643.92 943.47 642.01 940.48 639.44 C 937.66 637.21 940.86 633.83 940.60 631.06 C 939.79 625.33 936.46 620.41 934.09 615.25 C 929.10 615.25 924.12 615.45 919.16 615.96 C 914.64 609.81 910.10 603.69 905.59 597.54 C 911.06 596.35 916.63 595.62 922.23 595.35 C 914.95 583.60 906.44 572.67 899.10 560.96 C 897.28 558.05 896.81 554.39 897.47 551.07 C 898.00 548.79 900.38 550.77 901.14 551.89 C 912.26 565.95 922.38 580.79 932.63 595.50 C 939.92 596.34 947.24 597.00 954.50 598.15 C 945.62 587.47 935.21 577.82 928.49 565.52 C 925.25 559.97 924.67 553.06 926.74 547.00 Z" />
<path fill="#000000" opacity="1.00" d=" M 793.04 550.07 C 792.86 547.49 794.19 545.21 795.42 543.06 C 821.06 556.37 842.79 575.78 863.24 595.90 C 867.79 596.21 872.35 596.19 876.92 596.10 C 875.33 592.15 870.62 592.22 867.15 591.21 C 870.94 591.43 874.82 591.37 878.54 592.31 C 882.59 593.47 885.54 596.70 888.34 599.67 C 890.41 602.08 892.82 604.63 893.16 607.96 C 892.91 609.14 892.17 610.19 890.89 610.29 C 886.80 610.93 882.63 610.72 878.53 611.24 C 883.29 616.29 888.02 621.37 892.79 626.43 C 894.55 625.96 896.47 625.48 898.12 626.59 C 904.00 629.92 908.45 635.27 912.22 640.78 C 913.71 643.26 915.66 645.95 915.29 649.01 C 914.17 651.27 911.15 650.39 909.41 649.50 C 905.47 647.30 902.35 643.97 899.14 640.88 C 889.29 631.19 879.23 621.70 869.86 611.54 C 859.42 611.83 848.98 612.04 838.55 611.53 C 842.24 619.02 846.85 626.12 849.53 634.08 C 851.13 638.38 849.04 643.81 844.55 645.32 C 840.94 646.46 837.37 644.42 834.45 642.49 C 829.37 638.96 824.57 635.03 819.61 631.34 C 817.70 630.38 818.05 628.00 817.59 626.27 C 821.77 628.46 825.75 631.13 830.20 632.77 C 832.40 633.69 834.92 631.31 833.91 629.09 C 831.71 622.85 828.23 617.18 825.40 611.24 C 821.65 610.70 817.87 610.50 814.11 610.17 C 810.92 605.94 807.48 601.90 804.25 597.70 C 803.46 596.74 803.19 595.53 802.82 594.40 C 807.10 593.65 811.46 593.86 815.79 593.78 C 810.03 583.08 803.90 572.58 797.85 562.05 C 795.84 558.25 793.19 554.50 793.04 550.07 M 804.87 554.79 C 812.91 567.83 820.61 581.08 828.65 594.12 C 836.71 594.01 844.78 594.23 852.84 594.38 C 838.22 579.65 822.31 566.07 804.87 554.79 Z" />
<path fill="#000000" opacity="1.00" d=" M 706.90 553.39 C 713.45 551.78 720.26 551.73 726.97 551.83 C 742.12 552.34 757.67 555.18 770.86 562.97 C 779.93 568.25 783.44 579.18 784.22 589.07 C 784.82 592.56 783.06 596.25 779.98 597.98 C 771.99 602.46 763.26 605.64 754.22 607.16 C 744.39 608.63 733.51 611.90 727.95 620.83 C 739.57 630.65 755.39 632.15 769.99 632.38 C 777.93 632.29 786.06 633.14 793.84 631.19 C 792.26 628.81 788.60 629.16 787.29 626.61 C 792.12 626.11 797.67 627.14 800.90 631.08 C 803.21 633.95 805.16 637.27 805.95 640.90 C 806.38 643.90 804.03 646.40 801.51 647.60 C 796.03 650.23 789.85 650.85 783.87 651.33 C 770.16 652.10 756.30 650.61 743.06 646.97 C 734.71 644.83 726.55 640.38 721.77 633.00 C 718.38 627.81 716.85 620.70 720.00 615.05 C 722.97 609.80 728.30 606.50 733.48 603.73 C 742.49 598.99 752.29 596.05 762.09 593.46 C 765.18 592.50 768.48 591.96 771.26 590.24 C 773.42 588.38 772.45 585.07 770.78 583.24 C 767.27 579.34 762.31 577.16 757.48 575.40 C 747.38 571.99 736.70 570.47 726.07 570.14 C 722.70 570.14 719.22 569.71 715.98 570.86 C 720.77 574.65 728.56 576.52 730.00 583.23 C 726.09 581.64 722.79 578.93 718.95 577.22 C 714.39 574.92 709.29 573.79 704.96 571.06 C 701.22 567.89 700.48 562.53 700.71 557.91 C 701.32 555.10 704.50 554.12 706.90 553.39 Z" />
</g>
</svg>
